<?xml version="1.0" encoding="utf-8"?>
<!-- Generator: Adobe Illustrator 26.0.1, SVG Export Plug-In . SVG Version: 6.00 Build 0)  -->
<svg version="1.1" id="Ebene_1" xmlns="http://www.w3.org/2000/svg" xmlns:xlink="http://www.w3.org/1999/xlink" x="0px" y="0px"
	 viewBox="0 0 1211 498" style="enable-background:new 0 0 1211 498;" xml:space="preserve">
<style type="text/css">
	.st0{fill:none;stroke:url(#SVGID_1_);stroke-width:2.9224;stroke-miterlimit:10;}
	
		.st1{fill:none;stroke:url(#SVGID_00000006694890898392550490000000489912412750472855_);stroke-width:2.9224;stroke-miterlimit:10;}
	
		.st2{fill:none;stroke:url(#SVGID_00000031921864007334211960000017273893360246542522_);stroke-width:2.9224;stroke-miterlimit:10;}
	
		.st3{fill:none;stroke:url(#SVGID_00000155145631715443080760000006018683364015154058_);stroke-width:2.8991;stroke-miterlimit:10;}
	
		.st4{fill:none;stroke:url(#SVGID_00000030449095086198002380000006169788223785693342_);stroke-width:2.8991;stroke-miterlimit:10;}
	
		.st5{fill:none;stroke:url(#SVGID_00000073723788660081509420000014287373713972161429_);stroke-width:2.8991;stroke-miterlimit:10;}
	
		.st6{fill:none;stroke:url(#SVGID_00000139998887877675598770000007894813496928810386_);stroke-width:2.8991;stroke-miterlimit:10;}
	
		.st7{fill:none;stroke:url(#SVGID_00000080905740441492102030000016545756732310567049_);stroke-width:2.8991;stroke-miterlimit:10;}
	
		.st8{fill:none;stroke:url(#SVGID_00000021813764949101405160000001919447664846018712_);stroke-width:2.8991;stroke-miterlimit:10;}
	
		.st9{fill:none;stroke:url(#SVGID_00000131354341196202749740000007696030042109694602_);stroke-width:2.8991;stroke-miterlimit:10;}
	
		.st10{fill:none;stroke:url(#SVGID_00000100354475122380868130000002316685711715541909_);stroke-width:2.8991;stroke-miterlimit:10;}
	
		.st11{fill:none;stroke:url(#SVGID_00000071548718328085923930000014762626383728492700_);stroke-width:2.8991;stroke-miterlimit:10;}
	
		.st12{fill:none;stroke:url(#SVGID_00000166671432611693306520000018057622821410945665_);stroke-width:2.9224;stroke-miterlimit:10;}
	
		.st13{fill:none;stroke:url(#SVGID_00000119802042912865212910000001998934895246672025_);stroke-width:2.9224;stroke-miterlimit:10;}
	
		.st14{fill:none;stroke:url(#SVGID_00000171683780294465611350000005198923277398132630_);stroke-width:2.8991;stroke-miterlimit:10;}
	
		.st15{fill:none;stroke:url(#SVGID_00000178886007651962486400000013410196917368548795_);stroke-width:2.8991;stroke-miterlimit:10;}
	
		.st16{fill:none;stroke:url(#SVGID_00000006694927859243569720000012336508638682452365_);stroke-width:2.8991;stroke-miterlimit:10;}
	
		.st17{fill:none;stroke:url(#SVGID_00000104697978076409327310000003679639798008831389_);stroke-width:2.8991;stroke-miterlimit:10;}
	
		.st18{fill:none;stroke:url(#SVGID_00000006699809786821496570000007029544084962877064_);stroke-width:2.8991;stroke-miterlimit:10;}
	
		.st19{fill:none;stroke:url(#SVGID_00000014635134059924919740000006210017728700523396_);stroke-width:2.8991;stroke-miterlimit:10;}
	
		.st20{fill:none;stroke:url(#SVGID_00000125566863476517509560000017828649900507899307_);stroke-width:2.8991;stroke-miterlimit:10;}
	
		.st21{fill:none;stroke:url(#SVGID_00000123413168197961094240000006656681788738155182_);stroke-width:2.8991;stroke-miterlimit:10;}
	
		.st22{fill:none;stroke:url(#SVGID_00000063594200784418943460000005449146085037242760_);stroke-width:2.8991;stroke-miterlimit:10;}
	
		.st23{fill:none;stroke:url(#SVGID_00000134226885478616922180000008088320666009563288_);stroke-width:2.8991;stroke-miterlimit:10;}
	
		.st24{fill:none;stroke:url(#SVGID_00000177480887425781413910000016669632816038518462_);stroke-width:2.8991;stroke-miterlimit:10;}
	
		.st25{fill:none;stroke:url(#SVGID_00000140706986536477539010000008636249174322422168_);stroke-width:2.8991;stroke-miterlimit:10;}
	
		.st26{fill:none;stroke:url(#SVGID_00000022534155014812821290000004216584227456101026_);stroke-width:2.8991;stroke-miterlimit:10;}
	
		.st27{fill:none;stroke:url(#SVGID_00000036958083053826508680000012574677434990867840_);stroke-width:2.8991;stroke-miterlimit:10;}
	
		.st28{fill:none;stroke:url(#SVGID_00000162315556869066618850000014416995893221950107_);stroke-width:2.8991;stroke-miterlimit:10;}
	
		.st29{fill:none;stroke:url(#SVGID_00000036248342572357165380000008886576673131125634_);stroke-width:2.8991;stroke-miterlimit:10;}
	
		.st30{fill:none;stroke:url(#SVGID_00000071557201281354028420000012990898385972427191_);stroke-width:2.8991;stroke-miterlimit:10;}
	
		.st31{fill:none;stroke:url(#SVGID_00000174567777774892833670000014976734370566688422_);stroke-width:2.8991;stroke-miterlimit:10;}
	.st32{opacity:0.7;}
	
		.st33{fill:none;stroke:url(#SVGID_00000148634914983336601760000013173534558517461429_);stroke-width:2.8991;stroke-miterlimit:10;}
	
		.st34{fill:none;stroke:url(#SVGID_00000038404123458332883700000003233475015460584600_);stroke-width:2.8991;stroke-miterlimit:10;}
	
		.st35{fill:none;stroke:url(#SVGID_00000002371198728719926030000012393322517380411556_);stroke-width:2.8991;stroke-miterlimit:10;}
	
		.st36{fill:none;stroke:url(#SVGID_00000105426345697273377480000012503463430605229186_);stroke-width:2.8991;stroke-miterlimit:10;}
	
		.st37{fill:none;stroke:url(#SVGID_00000129207043198377502780000017787608883616383671_);stroke-width:2.8991;stroke-miterlimit:10;}
	
		.st38{fill:none;stroke:url(#SVGID_00000049937945307899995100000004630908647725420947_);stroke-width:2.8991;stroke-miterlimit:10;}
	
		.st39{fill:none;stroke:url(#SVGID_00000016049202969402645270000005165702953500413062_);stroke-width:2.8991;stroke-miterlimit:10;}
	
		.st40{fill:none;stroke:url(#SVGID_00000016041047200357969610000004867655893382956717_);stroke-width:2.8991;stroke-miterlimit:10;}
	
		.st41{fill:none;stroke:url(#SVGID_00000134930790212453254570000000789514444517385145_);stroke-width:2.8991;stroke-miterlimit:10;}
</style>
<g>
	<path d="M535.51,183.13v112.65h-10.32v-15.79c-6.53,10.78-17.61,16.55-30.82,16.55c-22.77,0-39.78-16.55-39.78-40.69
		s17-40.54,39.78-40.54c12.75,0,23.68,5.47,30.37,15.79v-47.98L535.51,183.13L535.51,183.13z M524.89,255.85
		c0-18.67-12.75-31.12-29.61-31.12c-17,0-29.76,12.45-29.76,31.12s12.75,31.12,29.76,31.12
		C512.13,286.98,524.89,274.53,524.89,255.85z"/>
	<path d="M631.31,259.19h-66.8c1.21,16.7,13.97,27.78,31.43,27.78c9.72,0,18.37-3.49,24.44-10.48l6.07,6.98
		c-7.14,8.5-18.22,13.06-30.82,13.06c-24.9,0-41.9-17-41.9-40.69c0-23.68,16.55-40.54,39.02-40.54s38.72,16.55,38.72,40.54
		C631.47,256.76,631.31,257.98,631.31,259.19z M564.51,251.15h56.63c-1.37-15.64-12.75-26.57-28.39-26.57
		C577.26,224.58,565.88,235.51,564.51,251.15z"/>
	<path d="M649.68,183.13h10.78v112.65h-10.78V183.13z"/>
	<path d="M732.12,290.92c-4.25,3.8-10.63,5.62-16.85,5.62c-15.03,0-23.38-8.5-23.38-23.23v-48.28h-14.27v-9.11h14.27v-17.46h10.78
		v17.46h24.29v9.11h-24.29v47.67c0,9.41,4.86,14.58,13.82,14.58c4.4,0,8.81-1.37,11.84-4.1L732.12,290.92z"/>
	<path d="M811.22,246.29v49.5H800.9v-12.45c-4.86,8.2-14.27,13.21-27.48,13.21c-18.07,0-29.15-9.41-29.15-23.23
		c0-12.3,7.89-22.62,30.82-22.62h25.35v-4.86c0-13.66-7.74-21.1-22.62-21.1c-10.32,0-20.04,3.64-26.57,9.41l-4.86-8.05
		c8.05-6.83,19.89-10.78,32.49-10.78C799.53,215.32,811.22,225.64,811.22,246.29z M800.44,271.79v-13.06h-25.05
		c-15.49,0-20.5,6.07-20.5,14.27c0,9.26,7.44,15.03,20.19,15.03C787.23,288.04,796.19,282.27,800.44,271.79z"/>
</g>
<g>
	<path d="M877.69,295.77h-34.53c-4.83,0-8.75-3.92-8.75-8.75v-55.18c0-4.83,3.92-8.75,8.75-8.75s8.75,3.92,8.75,8.75v46.43h25.16
		c0.28-0.02,0.57-0.03,0.86-0.02h0.1c21.23,0,38.5-17.27,38.5-38.5c0-21.23-17.27-38.5-38.5-38.5h-0.34c-0.9,0-1.76-0.13-2.57-0.38
		h-31.96c-4.83,0-8.75-3.92-8.75-8.75s3.92-8.75,8.75-8.75h34.53c0.95,0,1.87,0.15,2.73,0.43c29.78,1.26,53.62,25.88,53.62,55.96
		c0,30.8-24.99,55.87-55.75,56.01C878.09,295.76,877.89,295.77,877.69,295.77z"/>
</g>
<g>
	<path d="M1034.72,295.78h-87.31c-4.91,0-8.89-3.98-8.89-8.89c0-4.91,3.98-8.89,8.89-8.89h72.04l-38.46-67.65l-10.92,19.2
		c-2.43,4.27-7.85,5.76-12.12,3.33s-5.76-7.85-3.33-12.12l18.64-32.79c1.58-2.78,4.53-4.49,7.73-4.49l0,0c3.2,0,6.15,1.72,7.73,4.49
		l53.73,94.51c1.56,2.75,1.55,6.13-0.04,8.86C1040.81,294.1,1037.88,295.78,1034.72,295.78z"/>
</g>
<g>
	<path d="M1074.23,295.56c-4.38,0-8.2-3.23-8.81-7.69c-0.67-4.87,2.74-9.36,7.61-10.03c18.91-2.6,33.17-18.97,33.17-38.09
		c0-21.2-17.24-38.45-38.44-38.45c-11.11,0-21.68,4.82-29,13.22c-3.23,3.71-8.85,4.1-12.56,0.87c-3.71-3.23-4.1-8.85-0.87-12.56
		c10.7-12.29,26.16-19.33,42.43-19.33c31.02,0,56.25,25.24,56.25,56.25c0,27.97-20.87,51.93-48.55,55.73
		C1075.04,295.53,1074.63,295.56,1074.23,295.56z"/>
</g>
<g>
	<g>
		
			<linearGradient id="SVGID_1_" gradientUnits="userSpaceOnUse" x1="136.72" y1="350.86" x2="136.72" y2="350.86" gradientTransform="matrix(1 0 0 -1 0 498)">
			<stop  offset="0.1324" style="stop-color:#00FFFF"/>
			<stop  offset="0.8573" style="stop-color:#0F2AA5"/>
		</linearGradient>
		<path class="st0" d="M136.72,147.14"/>
		
			<linearGradient id="SVGID_00000122706669234563883860000000423567571761858976_" gradientUnits="userSpaceOnUse" x1="112.13" y1="328.07" x2="112.13" y2="328.07" gradientTransform="matrix(1 0 0 -1 0 498)">
			<stop  offset="0.1324" style="stop-color:#00FFFF"/>
			<stop  offset="0.8573" style="stop-color:#0F2AA5"/>
		</linearGradient>
		
			<path style="fill:none;stroke:url(#SVGID_00000122706669234563883860000000423567571761858976_);stroke-width:2.9224;stroke-miterlimit:10;" d="
			M112.13,169.93"/>
		
			<linearGradient id="SVGID_00000054226614618783725340000006032490354430223290_" gradientUnits="userSpaceOnUse" x1="99.83" y1="316.67" x2="99.83" y2="316.67" gradientTransform="matrix(1 0 0 -1 0 498)">
			<stop  offset="0.1324" style="stop-color:#00FFFF"/>
			<stop  offset="0.8573" style="stop-color:#0F2AA5"/>
		</linearGradient>
		
			<path style="fill:none;stroke:url(#SVGID_00000054226614618783725340000006032490354430223290_);stroke-width:2.9224;stroke-miterlimit:10;" d="
			M99.83,181.33"/>
		<g>
			
				<linearGradient id="SVGID_00000016779484850694724210000005100726760377558409_" gradientUnits="userSpaceOnUse" x1="226.2281" y1="395.842" x2="365.261" y2="395.842" gradientTransform="matrix(1 0 0 -1 0 498)">
				<stop  offset="0.1324" style="stop-color:#00FFFF"/>
				<stop  offset="0.8573" style="stop-color:#0F2AA5"/>
			</linearGradient>
			
				<path style="fill:none;stroke:url(#SVGID_00000016779484850694724210000005100726760377558409_);stroke-width:2.8991;stroke-miterlimit:10;" d="
				M364.38,127.38c-2.94-2.25-5.75-3.47-8.94-4.63c0,0-23.65-10.67-58.82-23.53s-60.13-19.96-60.13-19.96
				c-3.39-1.1-6.79-1.77-10.15-2.03"/>
			
				<linearGradient id="SVGID_00000084508874789432646620000009327967922253705373_" gradientUnits="userSpaceOnUse" x1="213.2612" y1="382.6573" x2="368.7157" y2="382.6573" gradientTransform="matrix(1 0 0 -1 0 498)">
				<stop  offset="0.1324" style="stop-color:#00FFFF"/>
				<stop  offset="0.8573" style="stop-color:#0F2AA5"/>
			</linearGradient>
			
				<path style="fill:none;stroke:url(#SVGID_00000084508874789432646620000009327967922253705373_);stroke-width:2.8991;stroke-miterlimit:10;" d="
				M367.76,143.76c-3.41-2.99-7.37-5.74-11.86-8.19c-2.75-1.49-27.04-12.89-63.05-26.06c-36.01-13.17-61.94-20.13-65.03-20.77
				c-5.07-1.04-9.94-1.51-14.54-1.45"/>
			
				<linearGradient id="SVGID_00000031897062680536348780000004796344373638584242_" gradientUnits="userSpaceOnUse" x1="199.26" y1="369.6824" x2="373.2176" y2="369.6824" gradientTransform="matrix(1 0 0 -1 0 498)">
				<stop  offset="0.1324" style="stop-color:#00FFFF"/>
				<stop  offset="0.8573" style="stop-color:#0F2AA5"/>
			</linearGradient>
			
				<path style="fill:none;stroke:url(#SVGID_00000031897062680536348780000004796344373638584242_);stroke-width:2.8991;stroke-miterlimit:10;" d="
				M372.2,160.24c-4.19-4.13-9.67-8.32-15.83-11.85c-5.43-3.11-30.44-15.11-67.29-28.58s-63.73-20.45-69.93-21.58
				c-7.08-1.29-13.86-1.67-19.79-1.26"/>
			
				<linearGradient id="SVGID_00000089574796066728178500000006643720491733068945_" gradientUnits="userSpaceOnUse" x1="185.8541" y1="356.8355" x2="377.2031" y2="356.8355" gradientTransform="matrix(1 0 0 -1 0 498)">
				<stop  offset="0.1324" style="stop-color:#00FFFF"/>
				<stop  offset="0.8573" style="stop-color:#0F2AA5"/>
			</linearGradient>
			
				<path style="fill:none;stroke:url(#SVGID_00000089574796066728178500000006643720491733068945_);stroke-width:2.8991;stroke-miterlimit:10;" d="
				M376.14,176.47c-4.82-5.2-11.46-10.59-19.31-15.27c-8.06-4.81-33.83-17.32-71.52-31.1s-65.51-20.84-74.83-22.38
				c-9.19-1.52-17.34-1.75-24.46-0.93"/>
			
				<linearGradient id="SVGID_00000033370159117058207200000005228268917160076219_" gradientUnits="userSpaceOnUse" x1="173.2075" y1="344.1782" x2="380.6721" y2="344.1782" gradientTransform="matrix(1 0 0 -1 0 498)">
				<stop  offset="0.1324" style="stop-color:#00FFFF"/>
				<stop  offset="0.8573" style="stop-color:#0F2AA5"/>
			</linearGradient>
			
				<path style="fill:none;stroke:url(#SVGID_00000033370159117058207200000005228268917160076219_);stroke-width:2.8991;stroke-miterlimit:10;" d="
				M379.57,192.34c-5.34-6.25-12.66-12.41-22.28-18.32c-10.66-6.55-37.23-19.54-75.76-33.63c-38.52-14.09-67.28-21.3-79.73-23.19
				c-10.96-1.67-20.38-1.77-28.39-0.64"/>
			
				<linearGradient id="SVGID_00000142145935815347156920000004687736680486338435_" gradientUnits="userSpaceOnUse" x1="155.4704" y1="329.9305" x2="386.5894" y2="329.9305" gradientTransform="matrix(1 0 0 -1 0 498)">
				<stop  offset="0.1324" style="stop-color:#00FFFF"/>
				<stop  offset="0.8573" style="stop-color:#0F2AA5"/>
			</linearGradient>
			
				<path style="fill:none;stroke:url(#SVGID_00000142145935815347156920000004687736680486338435_);stroke-width:2.8991;stroke-miterlimit:10;" d="
				M385.41,211.42c-5.78-8.09-14.89-16.55-27.66-24.58c-13.24-8.33-40.62-21.76-79.99-36.15c-39.36-14.39-69.04-21.79-84.63-24
				c-15.17-2.15-27.61-1.64-37.32,0.7"/>
			
				<linearGradient id="SVGID_00000141437672378088867580000001171609440789827245_" gradientUnits="userSpaceOnUse" x1="144.8731" y1="318.2586" x2="388.4298" y2="318.2586" gradientTransform="matrix(1 0 0 -1 0 498)">
				<stop  offset="0.1324" style="stop-color:#00FFFF"/>
				<stop  offset="0.8573" style="stop-color:#0F2AA5"/>
			</linearGradient>
			
				<path style="fill:none;stroke:url(#SVGID_00000141437672378088867580000001171609440789827245_);stroke-width:2.8991;stroke-miterlimit:10;" d="
				M387.26,225.36c-6.11-8.35-15.57-17.05-29.05-25.69c-15.8-10.13-44.02-23.97-84.23-38.68c-40.2-14.7-70.8-22.32-89.53-24.81
				c-16.21-2.16-29.1-1.87-39.25,0.48"/>
			
				<linearGradient id="SVGID_00000072962755793884921180000013099106580026172094_" gradientUnits="userSpaceOnUse" x1="131.8938" y1="305.6096" x2="391.8036" y2="305.6096" gradientTransform="matrix(1 0 0 -1 0 498)">
				<stop  offset="0.1324" style="stop-color:#00FFFF"/>
				<stop  offset="0.8573" style="stop-color:#0F2AA5"/>
			</linearGradient>
			
				<path style="fill:none;stroke:url(#SVGID_00000072962755793884921180000013099106580026172094_);stroke-width:2.8991;stroke-miterlimit:10;" d="
				M390.61,241.41c-6.38-9.26-16.61-18.95-31.94-28.93c-18.35-11.95-47.41-26.19-88.46-41.2c-41.04-15.01-72.56-22.86-94.43-25.62
				c-18.27-2.3-32.64-2.28-43.53,0.48"/>
			
				<linearGradient id="SVGID_00000007388691955156059340000009742076686819350666_" gradientUnits="userSpaceOnUse" x1="118.7748" y1="293.1791" x2="394.8364" y2="293.1791" gradientTransform="matrix(1 0 0 -1 0 498)">
				<stop  offset="0.1324" style="stop-color:#00FFFF"/>
				<stop  offset="0.8573" style="stop-color:#0F2AA5"/>
			</linearGradient>
			
				<path style="fill:none;stroke:url(#SVGID_00000007388691955156059340000009742076686819350666_);stroke-width:2.8991;stroke-miterlimit:10;" d="
				M393.63,257.01c-14.88-22.34-51.48-47.74-127.2-75.43c-76.58-28-121.5-32.5-147.26-25.2"/>
		</g>
		
			<linearGradient id="SVGID_00000080923669076498291410000015645739516116684477_" gradientUnits="userSpaceOnUse" x1="385.08" y1="275.26" x2="385.08" y2="275.26" gradientTransform="matrix(1 0 0 -1 0 498)">
			<stop  offset="0.1465" style="stop-color:#FFFFFF;stop-opacity:0"/>
			<stop  offset="0.288" style="stop-color:#FFFFFF;stop-opacity:0.9"/>
			<stop  offset="0.45" style="stop-color:#FFFFFF;stop-opacity:0.9"/>
			<stop  offset="0.7548" style="stop-color:#FFFFFF;stop-opacity:0"/>
			<stop  offset="0.8998" style="stop-color:#FFFFFF;stop-opacity:0"/>
		</linearGradient>
		
			<path style="fill:none;stroke:url(#SVGID_00000080923669076498291410000015645739516116684477_);stroke-width:2.9224;stroke-miterlimit:10;" d="
			M385.08,222.74"/>
		
			<linearGradient id="SVGID_00000111169044044633411750000013300707442248542376_" gradientUnits="userSpaceOnUse" x1="393.49" y1="208.56" x2="393.49" y2="208.56" gradientTransform="matrix(1 0 0 -1 0 498)">
			<stop  offset="0.1465" style="stop-color:#FFFFFF;stop-opacity:0"/>
			<stop  offset="0.288" style="stop-color:#FFFFFF;stop-opacity:0.9"/>
			<stop  offset="0.45" style="stop-color:#FFFFFF;stop-opacity:0.9"/>
			<stop  offset="0.7548" style="stop-color:#FFFFFF;stop-opacity:0"/>
			<stop  offset="0.8998" style="stop-color:#FFFFFF;stop-opacity:0"/>
		</linearGradient>
		
			<path style="fill:none;stroke:url(#SVGID_00000111169044044633411750000013300707442248542376_);stroke-width:2.9224;stroke-miterlimit:10;" d="
			M393.49,289.44"/>
		<g>
			
				<linearGradient id="SVGID_00000152949159281439803040000004506210312438207884_" gradientUnits="userSpaceOnUse" x1="267.5806" y1="88.5791" x2="407.865" y2="228.8634" gradientTransform="matrix(1 0 0 -1 0 498)">
				<stop  offset="0.071" style="stop-color:#3C7CE1"/>
				<stop  offset="0.1304" style="stop-color:#3570D8"/>
				<stop  offset="0.3033" style="stop-color:#2552C2"/>
				<stop  offset="0.4739" style="stop-color:#193DB2"/>
				<stop  offset="0.6398" style="stop-color:#1230A8"/>
				<stop  offset="0.7954" style="stop-color:#102CA5"/>
			</linearGradient>
			
				<path style="fill:none;stroke:url(#SVGID_00000152949159281439803040000004506210312438207884_);stroke-width:2.8991;stroke-miterlimit:10;" d="
				M263.53,403.85c9.57,0.48,19.51-2.46,27.78-9.37c0,0,21.06-15.14,49.79-39.17c28.72-24.03,47.35-42.09,47.35-42.09
				c17.28-14.46,17.68-40.76,5.04-56.42"/>
			
				<linearGradient id="SVGID_00000084516660542899383010000013496733853105045394_" gradientUnits="userSpaceOnUse" x1="255.5388" y1="93.8595" x2="405.4814" y2="243.802" gradientTransform="matrix(1 0 0 -1 0 498)">
				<stop  offset="0.071" style="stop-color:#3C7CE1"/>
				<stop  offset="0.1304" style="stop-color:#3570D8"/>
				<stop  offset="0.3033" style="stop-color:#2552C2"/>
				<stop  offset="0.4739" style="stop-color:#193DB2"/>
				<stop  offset="0.6398" style="stop-color:#1230A8"/>
				<stop  offset="0.7954" style="stop-color:#102CA5"/>
			</linearGradient>
			
				<path style="fill:none;stroke:url(#SVGID_00000084516660542899383010000013496733853105045394_);stroke-width:2.8991;stroke-miterlimit:10;" d="
				M250.52,397.68c9.34-0.05,19.51-3.06,29.59-9.27c2.64-1.63,24.61-16.96,53.96-41.52c29.47-24.65,48.49-43.61,50.57-45.93
				c17.98-20.09,19.24-43.96,5.88-59.68"/>
			
				<linearGradient id="SVGID_00000094606097232484410790000013804363960639399604_" gradientUnits="userSpaceOnUse" x1="245.0906" y1="100.9688" x2="403.0442" y2="258.9224" gradientTransform="matrix(1 0 0 -1 0 498)">
				<stop  offset="0.071" style="stop-color:#3C7CE1"/>
				<stop  offset="0.1304" style="stop-color:#3570D8"/>
				<stop  offset="0.3033" style="stop-color:#2552C2"/>
				<stop  offset="0.4739" style="stop-color:#193DB2"/>
				<stop  offset="0.6398" style="stop-color:#1230A8"/>
				<stop  offset="0.7954" style="stop-color:#102CA5"/>
			</linearGradient>
			
				<path style="fill:none;stroke:url(#SVGID_00000094606097232484410790000013804363960639399604_);stroke-width:2.8991;stroke-miterlimit:10;" d="
				M241.42,392.07c8.49-0.89,17.75-4.02,27.49-9.73c5.36-3.14,28.16-18.78,58.14-43.86c30.21-25.27,49.73-45.04,53.79-49.77
				c20.46-23.89,20.4-47.68,6.32-63.47"/>
			
				<linearGradient id="SVGID_00000042700657092092590110000001911633560468520095_" gradientUnits="userSpaceOnUse" x1="233.2386" y1="105.0258" x2="401.1465" y2="272.9336" gradientTransform="matrix(1 0 0 -1 0 498)">
				<stop  offset="0.071" style="stop-color:#3C7CE1"/>
				<stop  offset="0.1304" style="stop-color:#3570D8"/>
				<stop  offset="0.3033" style="stop-color:#2552C2"/>
				<stop  offset="0.4739" style="stop-color:#193DB2"/>
				<stop  offset="0.6398" style="stop-color:#1230A8"/>
				<stop  offset="0.7954" style="stop-color:#102CA5"/>
			</linearGradient>
			
				<path style="fill:none;stroke:url(#SVGID_00000042700657092092590110000001911633560468520095_);stroke-width:2.8991;stroke-miterlimit:10;" d="
				M228.21,386.67c8.84-1.01,18.71-4.32,29.49-10.41c8.11-4.58,31.71-20.61,62.31-46.21c30.95-25.89,51.04-46.41,57-53.61
				c21.87-26.41,21.12-49.52,8.17-65.3"/>
			
				<linearGradient id="SVGID_00000133498470609934054650000012098590048930284218_" gradientUnits="userSpaceOnUse" x1="218.4828" y1="110.2312" x2="397.7649" y2="289.5132" gradientTransform="matrix(1 0 0 -1 0 498)">
				<stop  offset="0.071" style="stop-color:#3C7CE1"/>
				<stop  offset="0.1304" style="stop-color:#3570D8"/>
				<stop  offset="0.3033" style="stop-color:#2552C2"/>
				<stop  offset="0.4739" style="stop-color:#193DB2"/>
				<stop  offset="0.6398" style="stop-color:#1230A8"/>
				<stop  offset="0.7954" style="stop-color:#102CA5"/>
			</linearGradient>
			
				<path style="fill:none;stroke:url(#SVGID_00000133498470609934054650000012098590048930284218_);stroke-width:2.8991;stroke-miterlimit:10;" d="
				M213.47,381.45c9.58-0.91,20.58-4.44,33.03-11.25c10.9-5.97,35.25-22.43,66.48-48.55c31.69-26.51,52.39-47.74,60.22-57.46
				c25.47-31.58,20.46-56.52,6.32-71.9"/>
			
				<linearGradient id="SVGID_00000072271550120501841860000007848233285480684685_" gradientUnits="userSpaceOnUse" x1="205.3775" y1="114.8349" x2="395.131" y2="304.5882" gradientTransform="matrix(1 0 0 -1 0 498)">
				<stop  offset="0.071" style="stop-color:#3C7CE1"/>
				<stop  offset="0.1304" style="stop-color:#3570D8"/>
				<stop  offset="0.3033" style="stop-color:#2552C2"/>
				<stop  offset="0.4739" style="stop-color:#193DB2"/>
				<stop  offset="0.6398" style="stop-color:#1230A8"/>
				<stop  offset="0.7954" style="stop-color:#102CA5"/>
			</linearGradient>
			
				<path style="fill:none;stroke:url(#SVGID_00000072271550120501841860000007848233285480684685_);stroke-width:2.8991;stroke-miterlimit:10;" d="
				M199.66,376.14c10.11-0.95,21.92-4.68,35.64-12.01c13.7-7.32,38.8-24.25,70.66-50.9c32.44-27.14,53.77-49.06,63.44-61.3
				c28-35.45,22.41-58.91,6.36-75.84"/>
			
				<linearGradient id="SVGID_00000068643860001155387410000008929344501364255667_" gradientUnits="userSpaceOnUse" x1="193.0091" y1="120.2278" x2="392.4027" y2="319.6213" gradientTransform="matrix(1 0 0 -1 0 498)">
				<stop  offset="0.071" style="stop-color:#3C7CE1"/>
				<stop  offset="0.1304" style="stop-color:#3570D8"/>
				<stop  offset="0.3033" style="stop-color:#2552C2"/>
				<stop  offset="0.4739" style="stop-color:#193DB2"/>
				<stop  offset="0.6398" style="stop-color:#1230A8"/>
				<stop  offset="0.7954" style="stop-color:#102CA5"/>
			</linearGradient>
			
				<path style="fill:none;stroke:url(#SVGID_00000068643860001155387410000008929344501364255667_);stroke-width:2.8991;stroke-miterlimit:10;" d="
				M187.2,370.69c10.36-1.2,22.55-5.12,36.89-12.63c16.51-8.64,42.35-26.07,74.83-53.25c33.18-27.76,55.18-50.36,66.66-65.14
				c30.53-39.32,23.25-63.69,6.29-79.74"/>
			
				<linearGradient id="SVGID_00000057828952730681648640000010452864746893500039_" gradientUnits="userSpaceOnUse" x1="178.3296" y1="123.6668" x2="389.404" y2="334.7412" gradientTransform="matrix(1 0 0 -1 0 498)">
				<stop  offset="0.071" style="stop-color:#3C7CE1"/>
				<stop  offset="0.1304" style="stop-color:#3570D8"/>
				<stop  offset="0.3033" style="stop-color:#2552C2"/>
				<stop  offset="0.4739" style="stop-color:#193DB2"/>
				<stop  offset="0.6398" style="stop-color:#1230A8"/>
				<stop  offset="0.7954" style="stop-color:#102CA5"/>
			</linearGradient>
			
				<path style="fill:none;stroke:url(#SVGID_00000057828952730681648640000010452864746893500039_);stroke-width:2.8991;stroke-miterlimit:10;" d="
				M170.95,365.62c11.4-0.88,25.19-5.02,41.94-13.64c19.33-9.95,45.89-27.89,79.01-55.59c33.92-28.38,56.6-51.64,69.87-68.98
				c33.07-43.2,23.41-67.77,5.74-83.89"/>
			
				<linearGradient id="SVGID_00000168084576311702982290000005279446511582388131_" gradientUnits="userSpaceOnUse" x1="164.2461" y1="127.5447" x2="387.1338" y2="350.4325" gradientTransform="matrix(1 0 0 -1 0 498)">
				<stop  offset="0.071" style="stop-color:#3C7CE1"/>
				<stop  offset="0.1304" style="stop-color:#3570D8"/>
				<stop  offset="0.3033" style="stop-color:#2552C2"/>
				<stop  offset="0.4739" style="stop-color:#193DB2"/>
				<stop  offset="0.6398" style="stop-color:#1230A8"/>
				<stop  offset="0.7954" style="stop-color:#102CA5"/>
			</linearGradient>
			
				<path style="fill:none;stroke:url(#SVGID_00000168084576311702982290000005279446511582388131_);stroke-width:2.8991;stroke-miterlimit:10;" d="
				M155.59,360.43c26.64-1.44,66.94-20.3,129.27-72.45c116.69-97.62,104.72-141.17,79.04-160.96"/>
		</g>
		<g>
			
				<linearGradient id="SVGID_00000119802288894825128390000009352235109343385492_" gradientUnits="userSpaceOnUse" x1="120.8833" y1="135.8421" x2="120.8833" y2="343.0767" gradientTransform="matrix(1 0 0 -1 0 498)">
				<stop  offset="0.0332" style="stop-color:#3C7CE1"/>
				<stop  offset="0.1315" style="stop-color:#67ADEF"/>
				<stop  offset="0.961" style="stop-color:#00FFFF"/>
			</linearGradient>
			
				<path style="fill:none;stroke:url(#SVGID_00000119802288894825128390000009352235109343385492_);stroke-width:2.8991;stroke-miterlimit:10;" d="
				M119.36,156.35c-19.99,3.59-35.22,24.09-31.31,46.46c0,0,2.58,25.81,9.03,62.7s12.78,62.05,12.78,62.05
				c3.88,22.19,26.49,35.29,45.74,32.86"/>
			
				<linearGradient id="SVGID_00000150811115022127099660000009869749159161763490_" gradientUnits="userSpaceOnUse" x1="134.2905" y1="130.6057" x2="134.2905" y2="353.3318" gradientTransform="matrix(1 0 0 -1 0 498)">
				<stop  offset="0.0332" style="stop-color:#3C7CE1"/>
				<stop  offset="0.1315" style="stop-color:#67ADEF"/>
				<stop  offset="0.961" style="stop-color:#00FFFF"/>
			</linearGradient>
			
				<path style="fill:none;stroke:url(#SVGID_00000150811115022127099660000009869749159161763490_);stroke-width:2.8991;stroke-miterlimit:10;" d="
				M132.42,146.09c-20.29,4.03-34.23,22.98-33.5,49.99c0.08,3.11,2.37,29.82,8.97,67.55c6.61,37.82,13.54,63.78,14.53,66.76
				c8.51,25.67,27.04,37.74,48.55,35.23"/>
			
				<linearGradient id="SVGID_00000134244048785021562890000010349856923040999613_" gradientUnits="userSpaceOnUse" x1="147.8783" y1="125.2864" x2="147.8783" y2="362.8197" gradientTransform="matrix(1 0 0 -1 0 498)">
				<stop  offset="0.0332" style="stop-color:#3C7CE1"/>
				<stop  offset="0.1315" style="stop-color:#67ADEF"/>
				<stop  offset="0.961" style="stop-color:#00FFFF"/>
			</linearGradient>
			
				<path style="fill:none;stroke:url(#SVGID_00000134244048785021562890000010349856923040999613_);stroke-width:2.8991;stroke-miterlimit:10;" d="
				M145.42,136.61c-20.14,3.37-35.64,19.74-35.64,52.74c0,6.22,2.16,33.82,8.9,72.4c6.77,38.75,14.17,65.55,16.28,71.46
				c10.62,29.79,30.89,40.84,52.24,37.47"/>
			
				<linearGradient id="SVGID_00000112605536540686471350000007622294038330393482_" gradientUnits="userSpaceOnUse" x1="159.5269" y1="119.9366" x2="159.5269" y2="372.0757" gradientTransform="matrix(1 0 0 -1 0 498)">
				<stop  offset="0.0332" style="stop-color:#3C7CE1"/>
				<stop  offset="0.1315" style="stop-color:#67ADEF"/>
				<stop  offset="0.961" style="stop-color:#00FFFF"/>
			</linearGradient>
			
				<path style="fill:none;stroke:url(#SVGID_00000112605536540686471350000007622294038330393482_);stroke-width:2.8991;stroke-miterlimit:10;" d="
				M156.03,127.35c-19.7,3.62-34.98,21.28-35.39,55.27c-0.11,9.33,1.95,37.83,8.84,77.26c6.94,39.69,14.71,67.35,18.03,76.17
				c11.99,31.93,32.49,43.08,52.14,40.1"/>
			
				<linearGradient id="SVGID_00000043428824317560749020000015155197441854619823_" gradientUnits="userSpaceOnUse" x1="171.8531" y1="114.7275" x2="171.8531" y2="382.8938" gradientTransform="matrix(1 0 0 -1 0 498)">
				<stop  offset="0.0332" style="stop-color:#3C7CE1"/>
				<stop  offset="0.1315" style="stop-color:#67ADEF"/>
				<stop  offset="0.961" style="stop-color:#00FFFF"/>
			</linearGradient>
			
				<path style="fill:none;stroke:url(#SVGID_00000043428824317560749020000015155197441854619823_);stroke-width:2.8991;stroke-miterlimit:10;" d="
				M173.5,116.55c-22.25,1.99-40.97,19.08-41.99,59.33c-0.31,12.44,1.74,41.84,8.78,82.11c7.1,40.62,15.21,69.17,19.78,80.87
				c13.49,34.55,34.02,45.22,53.41,42.58"/>
			
				<linearGradient id="SVGID_00000079485297601631738960000004891596646102612647_" gradientUnits="userSpaceOnUse" x1="184.6329" y1="109.4233" x2="184.6329" y2="392.696" gradientTransform="matrix(1 0 0 -1 0 498)">
				<stop  offset="0.0332" style="stop-color:#3C7CE1"/>
				<stop  offset="0.1315" style="stop-color:#67ADEF"/>
				<stop  offset="0.961" style="stop-color:#00FFFF"/>
			</linearGradient>
			
				<path style="fill:none;stroke:url(#SVGID_00000079485297601631738960000004891596646102612647_);stroke-width:2.8991;stroke-miterlimit:10;" d="
				M186.37,106.75c-22.81,1.59-42.4,17.7-43.99,62.41c-0.55,15.54,1.53,45.84,8.71,86.96c7.26,41.55,15.66,71.01,21.53,85.58
				c15.14,37.63,36.09,47.82,55.59,44.98"/>
			
				<linearGradient id="SVGID_00000178897172451105467440000001799646810316730248_" gradientUnits="userSpaceOnUse" x1="196.7625" y1="104.2077" x2="196.7625" y2="402.4877" gradientTransform="matrix(1 0 0 -1 0 498)">
				<stop  offset="0.0332" style="stop-color:#3C7CE1"/>
				<stop  offset="0.1315" style="stop-color:#67ADEF"/>
				<stop  offset="0.961" style="stop-color:#00FFFF"/>
			</linearGradient>
			
				<path style="fill:none;stroke:url(#SVGID_00000178897172451105467440000001799646810316730248_);stroke-width:2.8991;stroke-miterlimit:10;" d="
				M199.72,96.96c-23.37,1.18-44.3,16.29-46.48,65.47c-0.83,18.65,1.32,49.85,8.65,91.81c7.43,42.48,16.1,72.87,23.28,90.29
				c16.39,39.76,37.24,49.92,56.55,47.47"/>
			
				<linearGradient id="SVGID_00000054982921289866261270000010712643565953269928_" gradientUnits="userSpaceOnUse" x1="206.6797" y1="98.8705" x2="206.6797" y2="412.1496" gradientTransform="matrix(1 0 0 -1 0 498)">
				<stop  offset="0.0332" style="stop-color:#3C7CE1"/>
				<stop  offset="0.1315" style="stop-color:#67ADEF"/>
				<stop  offset="0.961" style="stop-color:#00FFFF"/>
			</linearGradient>
			
				<path style="fill:none;stroke:url(#SVGID_00000054982921289866261270000010712643565953269928_);stroke-width:2.8991;stroke-miterlimit:10;" d="
				M213.58,87.3c-24.04,0-46.71,14.73-49.47,68.4c-1.12,21.75,1.11,53.85,8.59,96.66c7.59,43.42,16.51,74.73,25.03,94.99
				c16.08,38.26,35.39,50.19,53.23,50.33"/>
			
				<linearGradient id="SVGID_00000076570504934428229070000010599288693364645760_" gradientUnits="userSpaceOnUse" x1="218.4595" y1="92.7123" x2="218.4595" y2="422.3436" gradientTransform="matrix(1 0 0 -1 0 498)">
				<stop  offset="0.0332" style="stop-color:#3C7CE1"/>
				<stop  offset="0.1315" style="stop-color:#67ADEF"/>
				<stop  offset="0.961" style="stop-color:#00FFFF"/>
			</linearGradient>
			
				<path style="fill:none;stroke:url(#SVGID_00000076570504934428229070000010599288693364645760_);stroke-width:2.8991;stroke-miterlimit:10;" d="
				M226.57,77.24c-33.47-2.44-68.56,27.42-43.07,173.23c20.94,119.8,52.1,151.96,80.04,153.37"/>
		</g>
	</g>
	<g class="st32">
		
			<linearGradient id="SVGID_00000045579021638946432680000000582765862133810863_" gradientUnits="userSpaceOnUse" x1="226.2281" y1="395.842" x2="365.261" y2="395.842" gradientTransform="matrix(1 0 0 -1 0 498)">
			<stop  offset="0.1465" style="stop-color:#FFFFFF;stop-opacity:0"/>
			<stop  offset="0.288" style="stop-color:#FFFFFF;stop-opacity:0.9"/>
			<stop  offset="0.45" style="stop-color:#FFFFFF;stop-opacity:0.9"/>
			<stop  offset="0.7548" style="stop-color:#FFFFFF;stop-opacity:0"/>
			<stop  offset="0.8998" style="stop-color:#FFFFFF;stop-opacity:0"/>
		</linearGradient>
		
			<path style="fill:none;stroke:url(#SVGID_00000045579021638946432680000000582765862133810863_);stroke-width:2.8991;stroke-miterlimit:10;" d="
			M364.38,127.38c-2.94-2.25-5.75-3.47-8.94-4.63c0,0-23.65-10.67-58.82-23.53s-60.13-19.96-60.13-19.96
			c-3.39-1.1-6.79-1.77-10.15-2.03"/>
		
			<linearGradient id="SVGID_00000005948481869918464910000000403701044567620487_" gradientUnits="userSpaceOnUse" x1="213.2612" y1="382.6573" x2="368.7157" y2="382.6573" gradientTransform="matrix(1 0 0 -1 0 498)">
			<stop  offset="0.1465" style="stop-color:#FFFFFF;stop-opacity:0"/>
			<stop  offset="0.288" style="stop-color:#FFFFFF;stop-opacity:0.9"/>
			<stop  offset="0.45" style="stop-color:#FFFFFF;stop-opacity:0.9"/>
			<stop  offset="0.7548" style="stop-color:#FFFFFF;stop-opacity:0"/>
			<stop  offset="0.8998" style="stop-color:#FFFFFF;stop-opacity:0"/>
		</linearGradient>
		
			<path style="fill:none;stroke:url(#SVGID_00000005948481869918464910000000403701044567620487_);stroke-width:2.8991;stroke-miterlimit:10;" d="
			M367.76,143.76c-3.41-2.99-7.37-5.74-11.86-8.19c-2.75-1.49-27.04-12.89-63.05-26.06c-36.01-13.17-61.94-20.13-65.03-20.77
			c-5.07-1.04-9.94-1.51-14.54-1.45"/>
		
			<linearGradient id="SVGID_00000093897951390308715000000009547857139971121336_" gradientUnits="userSpaceOnUse" x1="199.26" y1="369.6824" x2="373.2176" y2="369.6824" gradientTransform="matrix(1 0 0 -1 0 498)">
			<stop  offset="0.1465" style="stop-color:#FFFFFF;stop-opacity:0"/>
			<stop  offset="0.288" style="stop-color:#FFFFFF;stop-opacity:0.9"/>
			<stop  offset="0.45" style="stop-color:#FFFFFF;stop-opacity:0.9"/>
			<stop  offset="0.7548" style="stop-color:#FFFFFF;stop-opacity:0"/>
			<stop  offset="0.8998" style="stop-color:#FFFFFF;stop-opacity:0"/>
		</linearGradient>
		
			<path style="fill:none;stroke:url(#SVGID_00000093897951390308715000000009547857139971121336_);stroke-width:2.8991;stroke-miterlimit:10;" d="
			M372.2,160.24c-4.19-4.13-9.67-8.32-15.83-11.85c-5.43-3.11-30.44-15.11-67.29-28.58s-63.73-20.45-69.93-21.58
			c-7.08-1.29-13.86-1.67-19.79-1.26"/>
		
			<linearGradient id="SVGID_00000040538843999352186160000015471813991546137501_" gradientUnits="userSpaceOnUse" x1="185.8541" y1="356.8355" x2="377.2031" y2="356.8355" gradientTransform="matrix(1 0 0 -1 0 498)">
			<stop  offset="0.1465" style="stop-color:#FFFFFF;stop-opacity:0"/>
			<stop  offset="0.288" style="stop-color:#FFFFFF;stop-opacity:0.9"/>
			<stop  offset="0.45" style="stop-color:#FFFFFF;stop-opacity:0.9"/>
			<stop  offset="0.7548" style="stop-color:#FFFFFF;stop-opacity:0"/>
			<stop  offset="0.8998" style="stop-color:#FFFFFF;stop-opacity:0"/>
		</linearGradient>
		
			<path style="fill:none;stroke:url(#SVGID_00000040538843999352186160000015471813991546137501_);stroke-width:2.8991;stroke-miterlimit:10;" d="
			M376.14,176.47c-4.82-5.2-11.46-10.59-19.31-15.27c-8.06-4.81-33.83-17.32-71.52-31.1s-65.51-20.84-74.83-22.38
			c-9.19-1.52-17.34-1.75-24.46-0.93"/>
		
			<linearGradient id="SVGID_00000041270601848392031750000012698096466254721166_" gradientUnits="userSpaceOnUse" x1="173.2075" y1="344.1782" x2="380.6721" y2="344.1782" gradientTransform="matrix(1 0 0 -1 0 498)">
			<stop  offset="0.1465" style="stop-color:#FFFFFF;stop-opacity:0"/>
			<stop  offset="0.288" style="stop-color:#FFFFFF;stop-opacity:0.9"/>
			<stop  offset="0.45" style="stop-color:#FFFFFF;stop-opacity:0.9"/>
			<stop  offset="0.7548" style="stop-color:#FFFFFF;stop-opacity:0"/>
			<stop  offset="0.8998" style="stop-color:#FFFFFF;stop-opacity:0"/>
		</linearGradient>
		
			<path style="fill:none;stroke:url(#SVGID_00000041270601848392031750000012698096466254721166_);stroke-width:2.8991;stroke-miterlimit:10;" d="
			M379.57,192.34c-5.34-6.25-12.66-12.41-22.28-18.32c-10.66-6.55-37.23-19.54-75.76-33.63c-38.52-14.09-67.28-21.3-79.73-23.19
			c-10.96-1.67-20.38-1.77-28.39-0.64"/>
		
			<linearGradient id="SVGID_00000103266506494092207030000002553629836571541647_" gradientUnits="userSpaceOnUse" x1="155.4704" y1="329.9305" x2="386.5894" y2="329.9305" gradientTransform="matrix(1 0 0 -1 0 498)">
			<stop  offset="0.1465" style="stop-color:#FFFFFF;stop-opacity:0"/>
			<stop  offset="0.288" style="stop-color:#FFFFFF;stop-opacity:0.9"/>
			<stop  offset="0.45" style="stop-color:#FFFFFF;stop-opacity:0.9"/>
			<stop  offset="0.7548" style="stop-color:#FFFFFF;stop-opacity:0"/>
			<stop  offset="0.8998" style="stop-color:#FFFFFF;stop-opacity:0"/>
		</linearGradient>
		
			<path style="fill:none;stroke:url(#SVGID_00000103266506494092207030000002553629836571541647_);stroke-width:2.8991;stroke-miterlimit:10;" d="
			M385.41,211.42c-5.78-8.09-14.89-16.55-27.66-24.58c-13.24-8.33-40.62-21.76-79.99-36.15c-39.36-14.39-69.04-21.79-84.63-24
			c-15.17-2.15-27.61-1.64-37.32,0.7"/>
		
			<linearGradient id="SVGID_00000009581709747465844950000005575906614751797635_" gradientUnits="userSpaceOnUse" x1="144.8731" y1="318.2586" x2="388.4298" y2="318.2586" gradientTransform="matrix(1 0 0 -1 0 498)">
			<stop  offset="0.1465" style="stop-color:#FFFFFF;stop-opacity:0"/>
			<stop  offset="0.288" style="stop-color:#FFFFFF;stop-opacity:0.9"/>
			<stop  offset="0.45" style="stop-color:#FFFFFF;stop-opacity:0.9"/>
			<stop  offset="0.7548" style="stop-color:#FFFFFF;stop-opacity:0"/>
			<stop  offset="0.8998" style="stop-color:#FFFFFF;stop-opacity:0"/>
		</linearGradient>
		
			<path style="fill:none;stroke:url(#SVGID_00000009581709747465844950000005575906614751797635_);stroke-width:2.8991;stroke-miterlimit:10;" d="
			M387.26,225.36c-6.11-8.35-15.57-17.05-29.05-25.69c-15.8-10.13-44.02-23.97-84.23-38.68c-40.2-14.7-70.8-22.32-89.53-24.81
			c-16.21-2.16-29.1-1.87-39.25,0.48"/>
		
			<linearGradient id="SVGID_00000105396579970011953910000006787523912988743322_" gradientUnits="userSpaceOnUse" x1="131.8938" y1="305.6096" x2="391.8036" y2="305.6096" gradientTransform="matrix(1 0 0 -1 0 498)">
			<stop  offset="0.1465" style="stop-color:#FFFFFF;stop-opacity:0"/>
			<stop  offset="0.288" style="stop-color:#FFFFFF;stop-opacity:0.9"/>
			<stop  offset="0.45" style="stop-color:#FFFFFF;stop-opacity:0.9"/>
			<stop  offset="0.7548" style="stop-color:#FFFFFF;stop-opacity:0"/>
			<stop  offset="0.8998" style="stop-color:#FFFFFF;stop-opacity:0"/>
		</linearGradient>
		
			<path style="fill:none;stroke:url(#SVGID_00000105396579970011953910000006787523912988743322_);stroke-width:2.8991;stroke-miterlimit:10;" d="
			M390.61,241.41c-6.38-9.26-16.61-18.95-31.94-28.93c-18.35-11.95-47.41-26.19-88.46-41.2c-41.04-15.01-72.56-22.86-94.43-25.62
			c-18.27-2.3-32.64-2.28-43.53,0.48"/>
		
			<linearGradient id="SVGID_00000129912579029648889490000006289601982369149871_" gradientUnits="userSpaceOnUse" x1="118.7748" y1="293.1791" x2="394.8364" y2="293.1791" gradientTransform="matrix(1 0 0 -1 0 498)">
			<stop  offset="0.1465" style="stop-color:#FFFFFF;stop-opacity:0"/>
			<stop  offset="0.288" style="stop-color:#FFFFFF;stop-opacity:0.9"/>
			<stop  offset="0.45" style="stop-color:#FFFFFF;stop-opacity:0.9"/>
			<stop  offset="0.7548" style="stop-color:#FFFFFF;stop-opacity:0"/>
			<stop  offset="0.8998" style="stop-color:#FFFFFF;stop-opacity:0"/>
		</linearGradient>
		
			<path style="fill:none;stroke:url(#SVGID_00000129912579029648889490000006289601982369149871_);stroke-width:2.8991;stroke-miterlimit:10;" d="
			M393.63,257.01c-14.88-22.34-51.48-47.74-127.2-75.43c-76.58-28-121.5-32.5-147.26-25.2"/>
	</g>
</g>
</svg>
