<svg xmlns="http://www.w3.org/2000/svg" viewBox="0 0 340.158 155.906"><title>Logo-EuProGigant-positiv-RGB</title><path d="M146.1747,84.7509l-4.482,7.929-10.035-.973,7.145,6.075-4.869,8.613,9.656-4.539,8.43,7.168-2.406-10.002,9.83-4.621-11.209-1.087Zm17.327-23.884,10.45-.066-8.815,4.275,2.831,7.311-8.238-4.691-8.677,4.211,3.953-6.897-7.108-4.045,9.462-.06,3.677-6.405Zm-9.32-29.106-3.264,5.022-7.947.659,5.862,2.543-3.477,5.35,7.33-3.679,6.644,2.886-2.081-5.172,7.428-3.726-8.641.716Zm-18.081-7.15,6.914-.88-6.265,3.223,1.105,3.988-4.956-2.008-6.194,3.186,3.291-4.361-4.453-1.804,6.433-.819,3.123-4.134Zm-24.082-4.171-3.134,3.687-5.316.753,3.334,1.58-3.286,3.868,5.447-2.846,3.667,1.74-.283-3.506,5.502-2.874-5.672.804Z" fill="#ffd853"/><path d="M104.7467,37.7717a47.7506,47.7506,0,0,0-11.855,2.724,55.9353,55.9353,0,0,0-10.848,5.37,54.6151,54.6151,0,0,0-9.399,7.542,44.5207,44.5207,0,0,0-7.276,9.537,30.8922,30.8922,0,0,0-3.736,10.508,20.71,20.71,0,0,0,.837,9.965,17.8237,17.8237,0,0,0,6.011,8.236,24.4357,24.4357,0,0,0,11.776,4.612,37.2853,37.2853,0,0,0,9.258.044,47.7818,47.7818,0,0,0,9.763-2.209,55.0939,55.0939,0,0,0,9.547-4.274,55.61,55.61,0,0,0,8.593-5.985l-1.765,6.338,10.788,1.046,5.829-25.211-26.206-.271-2.688,7.531,6.315.243a35.7357,35.7357,0,0,1-5.286,4.125,36.5849,36.5849,0,0,1-6.054,3.133,31.8627,31.8627,0,0,1-6.362,1.847,24.5311,24.5311,0,0,1-6.199.335,16.3593,16.3593,0,0,1-7.484-2.312,11.22,11.22,0,0,1-4.241-4.728,12.1208,12.1208,0,0,1-1.042-6.149,18.207,18.207,0,0,1,2.053-6.832,27.312,27.312,0,0,1,4.64-6.406,34.548,34.548,0,0,1,6.275-5.122,35.4944,35.4944,0,0,1,7.326-3.584,29.6166,29.6166,0,0,1,7.906-1.652,22.3743,22.3743,0,0,1,4.672.171,16.9622,16.9622,0,0,1,4.073,1.109,13.1175,13.1175,0,0,1,3.351,2.007,11.1317,11.1317,0,0,1,2.463,2.867l12.623-6.206a18.6641,18.6641,0,0,0-4.385-4.2,22.69,22.69,0,0,0-5.584-2.777,29.01,29.01,0,0,0-6.489-1.378,37.4788,37.4788,0,0,0-7.2.006" fill="#23406c"/><path d="M91.6765,26.4846q-.681.267-1.363.547-.68.28-1.361.571t-1.362.595q-.68.303-1.36.618t-1.353.64q-.672.3225-1.334.654-.663.33-1.317.669-.654.3375-1.3.683l-.089,4.41q-1.07.597-2.111,1.22-1.0425.621-2.059,1.268-1.0155.645-2.008,1.314t-1.96,1.359l-4.389-1.595q-1.2.8865-2.368,1.804-1.17.9195-2.306,1.867-1.1385.951-2.243,1.929-1.107.9825-2.179,1.992l2.74,3.092q-.849.849-1.664,1.718-.819.8715-1.607,1.762-.7905.894-1.548,1.807-.7605.918-1.486,1.853l-6.451.843q-.8985,1.1775-1.751,2.379-.858,1.21-1.668,2.445-.816,1.2435-1.58,2.511-.7695,1.2795-1.485,2.58l5.633.935q-.5025,1.0425-.958,2.098-.46,1.0635-.871,2.14-.414,1.0845-.778,2.182-.3645,1.107-.677,2.226l-8.032,4.163c-.132.47-.258.943-.378,1.416q-.1815.714-.343,1.433-.1635.7215-.307,1.448-.1425.7305-.266,1.466c-.082.493-.158.984-.225,1.474q-.102.738-.181,1.47-.0795.7365-.135,1.467-.057.7335-.09,1.463l8.422-2.619q.0645,1.15.204,2.274.1395,1.1355.355,2.242.2175,1.1175.509,2.203.2955,1.0965.667,2.16l-8.232,8.634q.483,1.476,1.083,2.896.609,1.4415,1.339,2.823.7395,1.401,1.603,2.739.8745,1.356,1.875,2.642l9.833-8.024q.9195.888,1.925,1.713,1.0155.834,2.117,1.599,1.1115.7725,2.31,1.474,1.209.708,2.503,1.34l-4.747,13.155q.885.444,1.802.857.9225.414,1.877.797.9615.3855,1.953.735.999.354,2.029.671,1.02.315,2.07.594,1.0575.2805,2.143.524,1.092.2445,2.212.452,1.1265.207,2.28.375l6.669-13.748q1.7775.0855,3.613.067,1.848-.02,3.749-.152,1.9125-.132,3.874-.386,1.9725-.255,3.987-.635l3.988,13.845q1.36-.2775,2.732-.603,1.377-.327,2.762-.699,1.389-.375,2.786-.797,1.4-.423,2.806-.896,1.4115-.4785,2.806-.995,1.3965-.519,2.776-1.077,1.3815-.5595,2.745-1.159,1.3635-.6015,2.709-1.242l-8.22-28.003q-1.1265.62-2.277,1.201t-2.325,1.123q-1.173.54-2.37,1.037-1.194.4965-2.411.947a64.7984,64.7984,0,0,1-7.566,2.3,57.4876,57.4876,0,0,1-7.242,1.245,49.4859,49.4859,0,0,1-6.766.256,42.0448,42.0448,0,0,1-6.17-.642,32.7855,32.7855,0,0,1-10.404-3.671,24.76,24.76,0,0,1-7.23-6.121,22.5892,22.5892,0,0,1-4.012-7.81,26.3056,26.3056,0,0,1-.921-8.914,36.465,36.465,0,0,1,3.561-13.257,52.7007,52.7007,0,0,1,7.692-11.719,65.8381,65.8381,0,0,1,10.612-9.872,70.5066,70.5066,0,0,1,13.08-7.708q.747-.3375,1.492-.654.747-.3165,1.492-.611.747-.294,1.491-.57t1.49-.53Z" fill="#42bfe8"/><path d="M305.0507,102.053h0V98.858q0-.696-.86-.696h-2.006q-.942,0-1.147-.348a3.76,3.76,0,0,1-.205-1.576V84.321h3.358a.8371.8371,0,0,0,.819-.819V80.185a.839.839,0,0,0-.819-.819h-3.358v-4.34a.6543.6543,0,0,0-.204-.512.7667.7667,0,0,0-.533-.185h-.122l-4.996.86a1.42,1.42,0,0,0-.574.287.6612.6612,0,0,0-.245.532v3.358h-3.276a.9132.9132,0,0,0-.86.86v2.703a.6964.6964,0,0,0,.266.553,1.4568,1.4568,0,0,0,.594.307l3.276.532V96.197a11.6,11.6,0,0,0,.45,3.542,4.8831,4.8831,0,0,0,1.31,2.15,4.4871,4.4871,0,0,0,2.15,1.044,14.8362,14.8362,0,0,0,2.969.266,13.7159,13.7159,0,0,0,1.597-.082q.696-.081,1.638-.245.7785-.123.778-.819m-17.51-.082h0V88.334a20.3511,20.3511,0,0,0-.307-3.624,8.07,8.07,0,0,0-1.106-2.948,5.669,5.669,0,0,0-2.211-1.986,7.8059,7.8059,0,0,0-3.624-.737,11.7367,11.7367,0,0,0-3.481.471,11.562,11.562,0,0,0-3.194,1.658v-.983a.8408.8408,0,0,0-.819-.819h-4.586a.839.839,0,0,0-.819.819v21.786a.9153.9153,0,0,0,.86.86h4.955a.7572.7572,0,0,0,.573-.267.8524.8524,0,0,0,.246-.593V85.836a18.4429,18.4429,0,0,1,2.006-.942,5.05,5.05,0,0,1,1.843-.368,5.2984,5.2984,0,0,1,1.536.184,1.7391,1.7391,0,0,1,.921.635,2.777,2.777,0,0,1,.45,1.187,11.182,11.182,0,0,1,.123,1.802v13.637a.8524.8524,0,0,0,.246.593.7572.7572,0,0,0,.573.267h4.955a.9153.9153,0,0,0,.86-.86m-30.847-9.173v4.504a10.7893,10.7893,0,0,1-1.577.635,5.8417,5.8417,0,0,1-1.781.266,3.9965,3.9965,0,0,1-1.945-.368q-.636-.369-.635-1.679v-.369a4.7451,4.7451,0,0,1,.164-1.31,1.9611,1.9611,0,0,1,.573-.942,2.6321,2.6321,0,0,1,1.106-.553,7.0226,7.0226,0,0,1,1.76-.184Zm6.511,9.214V87.392a9.7111,9.7111,0,0,0-.676-3.828,6.6393,6.6393,0,0,0-1.904-2.58,7.8611,7.8611,0,0,0-3.01-1.474,15.63,15.63,0,0,0-3.993-.471,27.3527,27.3527,0,0,0-3.992.286q-1.9455.2865-3.092.574a.8892.8892,0,0,0-.778.901v3.316a.6961.6961,0,0,0,.205.574.8262.8262,0,0,0,.532.164h.205l1.228-.103q.738-.0615,1.659-.102.921-.042,1.924-.062t1.987-.02a4.1023,4.1023,0,0,1,2.252.532q.819.5325.819,2.293v1.475h-2.212q-5.2815,0-7.678,1.658a5.9487,5.9487,0,0,0-2.395,5.262v.369a8.3564,8.3564,0,0,0,.594,3.358,5.793,5.793,0,0,0,1.576,2.17,5.9294,5.9294,0,0,0,2.232,1.167,9.642,9.642,0,0,0,2.6.348,9.1881,9.1881,0,0,0,3.174-.491,10.4347,10.4347,0,0,0,2.518-1.352v.656a.8408.8408,0,0,0,.819.819h4.587a.8408.8408,0,0,0,.819-.819m-27.867,2.17v.328a2.4194,2.4194,0,0,1-.143.839,1.4164,1.4164,0,0,1-.573.676,3.2758,3.2758,0,0,1-1.208.43,11.8118,11.8118,0,0,1-2.048.143,6.9921,6.9921,0,0,1-3.235-.512,1.7086,1.7086,0,0,1-.86-1.576v-.328a4.85,4.85,0,0,1,.225-1.659,5.2353,5.2353,0,0,1,.594-1.126l3.03.656q1.3935.327,2.212.573a6.8583,6.8583,0,0,1,1.269.491,1.4331,1.4331,0,0,1,.594.512,1.16,1.16,0,0,1,.143.553m-.205-17.076v.327a2.9105,2.9105,0,0,1-.737,2.089,4.028,4.028,0,0,1-2.907.778,6.0167,6.0167,0,0,1-1.904-.246,2.89,2.89,0,0,1-1.126-.655,2.0846,2.0846,0,0,1-.553-.921,3.847,3.847,0,0,1-.144-1.045v-.327a2.9831,2.9831,0,0,1,.779-2.109,3.978,3.978,0,0,1,2.948-.84,3.8246,3.8246,0,0,1,2.907.84,3.0766,3.0766,0,0,1,.737,2.109m7.576-4.341V80.431a1.07,1.07,0,0,0-.286-.758.9679.9679,0,0,0-.738-.307h-10.196q-5.364,0-7.801,2.13a7.0884,7.0884,0,0,0-2.437,5.61v.327a8.5415,8.5415,0,0,0,.451,2.621,4.9336,4.9336,0,0,0,1.433,2.252,5.3353,5.3353,0,0,0-1.29,1.475,3.8492,3.8492,0,0,0-.512,2.006,5.0881,5.0881,0,0,0,.492,2.109,3.6248,3.6248,0,0,0,1.597,1.7,6.5139,6.5139,0,0,0-1.884,2.17,5.3345,5.3345,0,0,0-.573,2.416v.328a5.5576,5.5576,0,0,0,2.641,4.954q2.6415,1.7205,7.76,1.72,10.7295,0,10.729-6.674v-.328a5.6145,5.6145,0,0,0-.491-2.478,4.3051,4.3051,0,0,0-1.618-1.719,12.0133,12.0133,0,0,0-2.969-1.27q-1.842-.552-4.504-1.126l-4.628-1.024a2.0843,2.0843,0,0,1-.982-.409,1.0014,1.0014,0,0,1-.246-.737,1.0508,1.0508,0,0,1,.123-.512,1.2465,1.2465,0,0,1,.45-.43,8.6729,8.6729,0,0,0,1.72.43,15.5625,15.5625,0,0,0,2.539.184q4.8315,0,7.473-1.822t2.642-5.836v-.327a5.4044,5.4044,0,0,0-.267-1.597,5.8489,5.8489,0,0,0-.634-1.433l1.269-.41a1.5818,1.5818,0,0,0,.553-.287.8038.8038,0,0,0,.184-.614m-25.274,19.247V80.185a.8408.8408,0,0,0-.819-.819H211.62a.8408.8408,0,0,0-.819.819v21.827a.8408.8408,0,0,0,.819.819h4.996a.8408.8408,0,0,0,.819-.819m.164-26.127V72.077a.8408.8408,0,0,0-.819-.819h-5.324a.8408.8408,0,0,0-.819.819v3.808a.839.839,0,0,0,.819.819h5.324a.839.839,0,0,0,.819-.819m-11.052,2.048h0V73.592q0-.49-.696-.614-1.1475-.246-3.317-.594a33.7258,33.7258,0,0,0-5.242-.348,17.81,17.81,0,0,0-4.443.573,10.2125,10.2125,0,0,0-4.013,2.048,10.6,10.6,0,0,0-2.887,3.993,16.1474,16.1474,0,0,0-1.105,6.449v5.078a17.6951,17.6951,0,0,0,.532,4.566,12.0372,12.0372,0,0,0,1.454,3.419,10.3805,10.3805,0,0,0,2.109,2.416,10.6591,10.6591,0,0,0,2.477,1.556,11.5671,11.5671,0,0,0,2.621.819,13.6786,13.6786,0,0,0,2.477.246,45.1042,45.1042,0,0,0,5.283-.266q2.211-.2655,3.89-.594a.89.89,0,0,0,.819-.942V87.638a.8408.8408,0,0,0-.819-.819h-5.242a.7192.7192,0,0,0-.552.246.8191.8191,0,0,0-.226.573v9.419q-1.473.123-3.153.122a4.7147,4.7147,0,0,1-1.556-.286,3.5382,3.5382,0,0,1-1.495-1.065,5.9854,5.9854,0,0,1-1.105-2.129,11.7109,11.7109,0,0,1-.43-3.481V85.099a13.0189,13.0189,0,0,1,.368-3.358,5.3893,5.3893,0,0,1,1.065-2.15,3.7744,3.7744,0,0,1,1.7-1.126,7.1668,7.1668,0,0,1,2.231-.327q2.622,0,4.832.123l3.686.204h.123a.8472.8472,0,0,0,.45-.102.4729.4729,0,0,0,.164-.43" fill="#42bfe8"/><path d="M278.7809,53.1582V56.27a8.3515,8.3515,0,0,1-1.331,5.017,4.8494,4.8494,0,0,1-4.197,1.822,4.76,4.76,0,0,1-4.197-1.843,8.5718,8.5718,0,0,1-1.29-4.996v-3.112a8.4574,8.4574,0,0,1,1.31-5.016,5.7226,5.7226,0,0,1,8.395.02,8.47,8.47,0,0,1,1.31,4.996m3.604,3.112v-3.112a13.7567,13.7567,0,0,0-.573-4.095,8.6121,8.6121,0,0,0-1.72-3.153,7.6556,7.6556,0,0,0-2.867-2.027,10.2518,10.2518,0,0,0-3.972-.717,10.1065,10.1065,0,0,0-3.952.717,7.6906,7.6906,0,0,0-2.846,2.027,8.6121,8.6121,0,0,0-1.72,3.153,13.7567,13.7567,0,0,0-.573,4.095V56.27a13.7473,13.7473,0,0,0,.573,4.095,8.604,8.604,0,0,0,1.72,3.153,7.6793,7.6793,0,0,0,2.846,2.027,10.1065,10.1065,0,0,0,3.952.717,10.2518,10.2518,0,0,0,3.972-.717,7.6444,7.6444,0,0,0,2.867-2.027,8.604,8.604,0,0,0,1.72-3.153,13.7473,13.7473,0,0,0,.573-4.095m-20.094-10.688h0v-1.679q0-.7365-.86-.737a9.1744,9.1744,0,0,0-2.805.451,11.5185,11.5185,0,0,0-2.969,1.515v-.86a.8208.8208,0,0,0-.225-.573.7213.7213,0,0,0-.553-.246h-1.925a.7192.7192,0,0,0-.552.246.8173.8173,0,0,0-.226.573v20.884a.82.82,0,0,0,.226.574.7183.7183,0,0,0,.552.245h2.007a.839.839,0,0,0,.819-.819V47.9982a12.4061,12.4061,0,0,1,2.887-1.331,9.8091,9.8091,0,0,1,2.764-.389q.8595,0,.86-.696m-17.543-1.433v.532q0,3.195-1.76,4.628t-5.979,1.433q-.41,0-.962-.02t-1.126-.041c-.383-.014-.751-.035-1.106-.062s-.655-.041-.901-.041V38.58q.7365-.0825,1.945-.123t2.15-.041q3.972,0,5.856,1.31t1.883,4.423m3.727.532v-.532a9.1347,9.1347,0,0,0-.86-4.156,7.1706,7.1706,0,0,0-2.396-2.744,10.4653,10.4653,0,0,0-3.624-1.515,20.8537,20.8537,0,0,0-4.586-.471q-1.8015,0-3.645.082t-3.153.246a.9615.9615,0,0,0-.983,1.023v28.542a.8723.8723,0,0,0,.205.574.66.66,0,0,0,.533.245h2.211a.6583.6583,0,0,0,.532-.245.8671.8671,0,0,0,.205-.574V53.6492q.819.0825,1.966.144t2.129.061a20.8537,20.8537,0,0,0,4.586-.471,10.0058,10.0058,0,0,0,3.624-1.556,7.4163,7.4163,0,0,0,2.396-2.825,9.7153,9.7153,0,0,0,.86-4.321m-24.242,20.475h0V44.2722a.8208.8208,0,0,0-.225-.573.7213.7213,0,0,0-.553-.246h-2.007a.8408.8408,0,0,0-.819.819v17.281a21.8608,21.8608,0,0,1-2.825,1.146,8.7386,8.7386,0,0,1-2.703.451,6.7733,6.7733,0,0,1-2.027-.266,3.0834,3.0834,0,0,1-1.392-.881,3.8473,3.8473,0,0,1-.819-1.658,10.7035,10.7035,0,0,1-.266-2.601V44.2722a.8408.8408,0,0,0-.819-.819h-1.966a.8408.8408,0,0,0-.819.819v13.472a10.1713,10.1713,0,0,0,1.699,6.307q1.7,2.211,5.426,2.211a10.8736,10.8736,0,0,0,3.317-.471,18.3582,18.3582,0,0,0,3.194-1.413v.778a.82.82,0,0,0,.226.574.7183.7183,0,0,0,.552.245h2.048a.72.72,0,0,0,.553-.245.8232.8232,0,0,0,.225-.574m-21.126.328h0v-2.088q0-.492-.45-.492h-7.904a12.21,12.21,0,0,1-2.621-.225,3.1588,3.1588,0,0,1-1.515-.737,2.5621,2.5621,0,0,1-.716-1.311,8.9965,8.9965,0,0,1-.185-1.986v-6.879h12.572a.8408.8408,0,0,0,.819-.819v-1.556a.839.839,0,0,0-.819-.819h-12.572V42.88a9.0622,9.0622,0,0,1,.185-1.966,2.5724,2.5724,0,0,1,.716-1.331,3.1588,3.1588,0,0,1,1.515-.737,12.21,12.21,0,0,1,2.621-.225h7.904q.45,0,.45-.492v-2.047a.6852.6852,0,0,0-.102-.369.4492.4492,0,0,0-.308-.204l-1.638-.103q-.9825-.0615-2.088-.082-1.1055-.018-2.232-.041-1.125-.02-2.027-.02-4.341,0-6.531,1.761-2.1915,1.761-2.191,5.856v15.765q0,4.095,2.191,5.856t6.531,1.761h2.048q1.146,0,2.272-.041t2.109-.061a13.5153,13.5153,0,0,0,1.556-.103.4492.4492,0,0,0,.308-.204.6852.6852,0,0,0,.102-.369" fill="#23406c"/></svg>